<?xml version="1.0" encoding="UTF-8" standalone="no"?>
<svg
   xmlns:dc="http://purl.org/dc/elements/1.1/"
   xmlns:cc="http://creativecommons.org/ns#"
   xmlns:rdf="http://www.w3.org/1999/02/22-rdf-syntax-ns#"
   xmlns:svg="http://www.w3.org/2000/svg"
   xmlns="http://www.w3.org/2000/svg"
   xmlns:sodipodi="http://sodipodi.sourceforge.net/DTD/sodipodi-0.dtd"
   xmlns:inkscape="http://www.inkscape.org/namespaces/inkscape"
   width="1in"
   height="0.64999998in"
   viewBox="0 0 25.4 16.51"
   version="1.1"
   id="svg8"
   inkscape:version="1.0.1 (1.0.1+r73)"
   sodipodi:docname="T5403.svg">
  <defs
     id="defs2" />
  <sodipodi:namedview
     id="base"
     pagecolor="#ffffff"
     bordercolor="#666666"
     borderopacity="1.0"
     inkscape:pageopacity="0.0"
     inkscape:pageshadow="2"
     inkscape:zoom="7.1283721"
     inkscape:cx="44.119065"
     inkscape:cy="22.627766"
     inkscape:document-units="mm"
     inkscape:current-layer="layer2"
     inkscape:document-rotation="0"
     showgrid="false"
     units="in"
     inkscape:snap-text-baseline="true"
     inkscape:snap-global="true"
     inkscape:snap-nodes="true"
     inkscape:window-width="1056"
     inkscape:window-height="998"
     inkscape:window-x="842"
     inkscape:window-y="48"
     inkscape:window-maximized="0" />
  <metadata
     id="metadata5">
    <rdf:RDF>
      <cc:Work
         rdf:about="">
        <dc:format>image/svg+xml</dc:format>
        <dc:type
           rdf:resource="http://purl.org/dc/dcmitype/StillImage" />
        <dc:title></dc:title>
      </cc:Work>
    </rdf:RDF>
  </metadata>
  <g
     inkscape:label="Layer 1"
     id="layer1"
     style="display:inline"
     inkscape:groupmode="layer"
     sodipodi:insensitive="true">
    <path
       id="rect10"
       style="display:inline;fill:#ff0000;stroke-width:0.264583"
       d="M -0.05391811,-0.0546266 H 25.504506 V 16.546795 H -0.05391811 Z" />
    <g
       aria-label="T5403 Barometric Sensor"
       id="text26"
       style="font-size:1.27px;line-height:0.55;font-family:sans-serif;word-spacing:0px;display:inline;fill:#ffffff;stroke-width:0.264583"
       inkscape:groupmode="layer">
      <path
         d="m 4.4301401,0.67015249 h 0.783208 V 0.77557241 H 4.884686 V 1.5959874 H 4.7588022 V 0.77557241 H 4.4301401 Z"
         style="fill:#ffffff;stroke-width:0.264583"
         id="path931" />
      <path
         d="M 5.3472934,0.67015249 H 5.8390463 V 0.77557241 H 5.462015 V 1.0025353 q 0.027285,-0.009302 0.05457,-0.0136426 0.027285,-0.004961 0.05457,-0.004961 0.1550292,0 0.2455664,0.084956 0.090537,0.084956 0.090537,0.2300635 0,0.1494483 -0.093018,0.232544 -0.093018,0.082475 -0.2623096,0.082475 -0.058291,0 -0.1190625,-0.00992 -0.060151,-0.00992 -0.1246435,-0.029766 V 1.4483996 q 0.05581,0.030386 0.1153418,0.045269 0.059531,0.014883 0.1258838,0.014883 0.1072802,0 0.1699121,-0.056431 0.062632,-0.056431 0.062632,-0.153169 0,-0.096738 -0.062632,-0.1531689 -0.062632,-0.056431 -0.1699121,-0.056431 -0.05023,0 -0.100459,0.011162 -0.049609,0.011162 -0.1016992,0.034727 z"
         style="fill:#ffffff;stroke-width:0.264583"
         id="path933" />
      <path
         d="M 6.4988509,0.77929312 6.1825912,1.2735265 H 6.4988509 Z M 6.4659847,0.67015249 H 6.6234945 V 1.2735265 h 0.132085 V 1.3777062 H 6.6234945 V 1.5959874 H 6.4988509 V 1.3777062 H 6.080892 V 1.2567833 Z"
         style="fill:#ffffff;stroke-width:0.264583"
         id="path935" />
      <path
         d="m 7.2312093,0.75262808 q -0.096738,0 -0.1457276,0.095498 -0.048369,0.0948779 -0.048369,0.28587402 0,0.190376 0.048369,0.2858741 0.048989,0.094878 0.1457276,0.094878 0.097358,0 0.1457275,-0.094878 0.048989,-0.095498 0.048989,-0.2858741 0,-0.19099609 -0.048989,-0.28587402 -0.048369,-0.095498 -0.1457275,-0.095498 z m 0,-0.0992188 q 0.1556494,0 0.2375048,0.12340332 0.082476,0.1227832 0.082476,0.3571874 0,0.2337843 -0.082476,0.3571875 -0.081855,0.1227832 -0.2375048,0.1227832 -0.1556494,0 -0.238125,-0.1227832 Q 6.9112293,1.3677843 6.9112293,1.134 q 0,-0.2344042 0.081855,-0.3571874 0.082476,-0.12340332 0.238125,-0.12340332 z"
         style="fill:#ffffff;stroke-width:0.264583"
         id="path937" />
      <path
         d="m 8.1514632,1.0967931 q 0.089917,0.019224 0.1401465,0.079995 0.05085,0.060771 0.05085,0.1500684 0,0.1370459 -0.094258,0.2120801 -0.094258,0.075034 -0.2678906,0.075034 -0.058291,0 -0.1203028,-0.011782 -0.061392,-0.011162 -0.127124,-0.034106 V 1.4471593 q 0.05209,0.030386 0.1141016,0.045889 0.062012,0.015503 0.1296045,0.015503 0.1178222,0 0.1792138,-0.046509 0.062012,-0.046509 0.062012,-0.1351855 0,-0.081855 -0.057671,-0.1277442 -0.057051,-0.046509 -0.1593701,-0.046509 H 7.8928743 V 1.0496642 h 0.1128614 q 0.092397,0 0.1413867,-0.036587 0.048989,-0.037207 0.048989,-0.10666016 0,-0.0713135 -0.05085,-0.10914063 -0.05023,-0.0384473 -0.1444873,-0.0384473 -0.05147,0 -0.1103808,0.0111621 -0.058911,0.0111621 -0.1296045,0.0347266 V 0.69309683 q 0.071313,-0.0198438 0.1333252,-0.0297656 0.062632,-0.009922 0.1178222,-0.009922 0.142627,0 0.2257227,0.0651123 0.083096,0.0644922 0.083096,0.17487305 0,0.0768945 -0.044028,0.13022462 -0.044028,0.05271 -0.1252637,0.073174 z"
         style="fill:#ffffff;stroke-width:0.264583"
         id="path939" />
      <path
         d="M 9.0990021,1.1538439 V 1.493048 h 0.200918 q 0.1010791,0 0.1494482,-0.041548 0.048989,-0.042168 0.048989,-0.1283642 0,-0.086816 -0.048989,-0.1277442 -0.048369,-0.041548 -0.1494482,-0.041548 z m 0,-0.38075196 V 1.0521447 h 0.185415 q 0.091777,0 0.1364258,-0.034107 0.045269,-0.0347265 0.045269,-0.10541989 0,-0.0700732 -0.045269,-0.1047998 -0.044648,-0.0347266 -0.1364258,-0.0347266 z M 8.9737384,0.67015249 h 0.3199805 q 0.1432471,0 0.2207617,0.0595313 0.077515,0.0595312 0.077515,0.16929199 0,0.0849561 -0.039687,0.13518552 -0.039687,0.050229 -0.116582,0.062632 0.092397,0.019844 0.1432471,0.083096 0.05147,0.062632 0.05147,0.1568897 0,0.1240234 -0.084336,0.1916162 -0.084336,0.067593 -0.2399854,0.067593 H 8.9737384 Z"
         style="fill:#ffffff;stroke-width:0.264583"
         id="path941" />
      <path
         d="m 10.155062,1.2468615 q -0.138286,0 -0.1916165,0.031626 -0.05333,0.031626 -0.05333,0.1079004 0,0.060771 0.039687,0.096738 0.040308,0.035347 0.1091415,0.035347 0.09488,0 0.151928,-0.066973 0.05767,-0.067593 0.05767,-0.1792138 v -0.025425 z m 0.227583,-0.047129 V 1.5959874 H 10.268543 V 1.4905675 q -0.03907,0.063252 -0.09736,0.093638 -0.05829,0.029766 -0.142627,0.029766 -0.1066604,0 -0.1699123,-0.059531 -0.062632,-0.060151 -0.062632,-0.1606104 0,-0.1172021 0.078135,-0.1767334 0.078755,-0.059531 0.2344043,-0.059531 h 0.15999 v -0.011162 q 0,-0.078755 -0.05209,-0.121543 -0.05147,-0.0434082 -0.145107,-0.0434082 -0.05953,0 -0.1159619,0.0142627 -0.056431,0.0142627 -0.1085205,0.0427881 V 0.93308218 q 0.062632,-0.0241846 0.1215429,-0.0359668 0.058912,-0.0124023 0.1147215,-0.0124023 0.150689,0 0.225103,0.0781348 0.07441,0.0781348 0.07441,0.23688482 z"
         style="fill:#ffffff;stroke-width:0.264583"
         id="path943" />
      <path
         d="m 11.020745,1.0081164 q -0.01922,-0.0111621 -0.04217,-0.0161231 -0.02232,-0.005581 -0.04961,-0.005581 -0.09674,0 -0.148828,0.063252 -0.05147,0.062632 -0.05147,0.1804541 v 0.365869 H 10.613948 V 0.9014562 h 0.114722 v 0.1079004 q 0.03597,-0.063252 0.09364,-0.0936377 0.05767,-0.0310059 0.140146,-0.0310059 0.01178,0 0.02604,0.00186 0.01426,0.00124 0.03163,0.004341 z"
         style="fill:#ffffff;stroke-width:0.264583"
         id="path945" />
      <path
         d="m 11.383514,0.98145132 q -0.09178,0 -0.145108,0.0719336 -0.05333,0.071314 -0.05333,0.195957 0,0.1246436 0.05271,0.1965772 0.05333,0.071314 0.145728,0.071314 0.09116,0 0.144487,-0.071934 0.05333,-0.071934 0.05333,-0.1959571 0,-0.1234033 -0.05333,-0.1953369 -0.05333,-0.0725537 -0.144487,-0.0725538 z m 0,-0.0967383 q 0.148828,0 0.233784,0.0967383 0.08496,0.0967383 0.08496,0.26789058 0,0.1705323 -0.08496,0.2678907 -0.08496,0.096738 -0.233784,0.096738 -0.149448,0 -0.234404,-0.096738 -0.08434,-0.097358 -0.08434,-0.2678907 0,-0.1711523 0.08434,-0.26789058 0.08496,-0.0967383 0.234404,-0.0967383 z"
         style="fill:#ffffff;stroke-width:0.264583"
         id="path947" />
      <path
         d="m 12.431512,1.0347814 q 0.04279,-0.0768945 0.102319,-0.11348145 0.05953,-0.0365869 0.140147,-0.0365869 0.10852,0 0.167431,0.0762744 0.05891,0.0756543 0.05891,0.21580075 v 0.4191992 h -0.11472 V 1.1805089 q 0,-0.099839 -0.03535,-0.148208 -0.03535,-0.0483691 -0.1079,-0.0483691 -0.08868,0 -0.140147,0.0589111 -0.05147,0.058911 -0.05147,0.1606104 V 1.5959874 H 12.336014 V 1.1805089 q 0,-0.100459 -0.03535,-0.148208 -0.03535,-0.0483691 -0.10914,-0.0483691 -0.08744,0 -0.138907,0.0595312 -0.05147,0.058911 -0.05147,0.1599903 V 1.5959874 H 11.886429 V 0.9014562 h 0.114722 v 0.1079004 q 0.03907,-0.0638721 0.09364,-0.0942578 0.05457,-0.0303857 0.129605,-0.0303857 0.07565,0 0.128364,0.0384473 0.05333,0.0384473 0.07875,0.1116211 z"
         style="fill:#ffffff;stroke-width:0.264583"
         id="path949" />
      <path
         d="m 13.722595,1.2201964 v 0.055811 h -0.524619 q 0.0074,0.1178222 0.07069,0.179834 0.06387,0.061392 0.177353,0.061392 0.06573,0 0.127124,-0.016123 0.06201,-0.016123 0.122783,-0.048369 v 0.1079004 q -0.06139,0.026045 -0.125883,0.039687 -0.06449,0.013643 -0.130845,0.013643 -0.166192,0 -0.26355,-0.096738 -0.09674,-0.096738 -0.09674,-0.2616895 0,-0.1705322 0.09178,-0.27037108 0.0924,-0.10045898 0.248667,-0.10045898 0.140147,0 0.221382,0.0905371 0.08186,0.089917 0.08186,0.24494626 z m -0.114101,-0.033486 q -0.0012,-0.093638 -0.05271,-0.1494482 -0.05085,-0.0558106 -0.135186,-0.0558106 -0.0955,0 -0.153169,0.0539502 -0.05705,0.05395 -0.06573,0.1519287 z"
         style="fill:#ffffff;stroke-width:0.264583"
         id="path951" />
      <path
         d="M 14.022733,0.70425894 V 0.9014562 h 0.235024 V 0.990133 h -0.235024 v 0.3770312 q 0,0.084956 0.02294,0.1091406 0.02356,0.024185 0.09488,0.024185 h 0.117202 v 0.095498 h -0.117202 q -0.132085,0 -0.182314,-0.048989 -0.05023,-0.049609 -0.05023,-0.179834 V 0.99013296 h -0.08372 V 0.9014562 h 0.08372 V 0.70425894 Z"
         style="fill:#ffffff;stroke-width:0.264583"
         id="path953" />
      <path
         d="m 14.810902,1.0081164 q -0.01922,-0.0111621 -0.04217,-0.0161231 -0.02232,-0.005581 -0.04961,-0.005581 -0.09674,0 -0.148828,0.063252 -0.05147,0.062632 -0.05147,0.1804541 v 0.365869 H 14.404105 V 0.9014562 h 0.114722 v 0.1079004 q 0.03597,-0.063252 0.09364,-0.0936377 0.05767,-0.0310059 0.140147,-0.0310059 0.01178,0 0.02604,0.00186 0.01426,0.00124 0.03163,0.004341 z"
         style="fill:#ffffff;stroke-width:0.264583"
         id="path955" />
      <path
         d="m 14.931824,0.9014562 h 0.114102 v 0.6945312 h -0.114102 z m 0,-0.27037109 h 0.114102 v 0.1444873 h -0.114102 z"
         style="fill:#ffffff;stroke-width:0.264583"
         id="path957" />
      <path
         d="M 15.783866,0.92812124 V 1.0347814 q -0.04837,-0.026665 -0.09736,-0.0396875 -0.04837,-0.0136426 -0.09798,-0.0136426 -0.111001,0 -0.172393,0.0706934 -0.06139,0.070073 -0.06139,0.1971972 0,0.1271241 0.06139,0.1978174 0.06139,0.070073 0.172393,0.070073 0.04961,0 0.09798,-0.013022 0.04899,-0.013643 0.09736,-0.040308 v 0.1054199 q -0.04775,0.022324 -0.09922,0.033486 -0.05085,0.011162 -0.108521,0.011162 -0.156889,0 -0.249287,-0.098599 -0.0924,-0.098599 -0.0924,-0.2660303 0,-0.1699121 0.09302,-0.26727047 0.09364,-0.0973584 0.256109,-0.0973584 0.05271,0 0.102939,0.0111621 0.05023,0.010542 0.09736,0.0322461 z"
         style="fill:#ffffff;stroke-width:0.264583"
         id="path959" />
      <path
         d="m 16.947825,0.70053823 v 0.12216309 q -0.07131,-0.0341065 -0.134565,-0.0508496 -0.06325,-0.0167432 -0.122163,-0.0167432 -0.102319,0 -0.15813,0.0396875 -0.05519,0.0396875 -0.05519,0.11286133 0,0.0613916 0.03659,0.0930175 0.03721,0.031006 0.140146,0.05023 l 0.07565,0.015503 q 0.140147,0.026665 0.206499,0.094258 0.06697,0.066973 0.06697,0.179834 0,0.1345654 -0.09054,0.2040186 -0.08992,0.069453 -0.26417,0.069453 -0.06573,0 -0.140147,-0.014883 -0.07379,-0.014883 -0.153168,-0.044028 V 1.4260753 q 0.07627,0.042788 0.149448,0.064492 0.07317,0.021704 0.143867,0.021704 0.10728,0 0.165571,-0.042168 0.05829,-0.042168 0.05829,-0.1203028 0,-0.068213 -0.04217,-0.1066601 -0.04155,-0.038447 -0.137046,-0.057671 l -0.07627,-0.014883 q -0.140146,-0.027905 -0.202778,-0.087437 -0.06263,-0.059531 -0.06263,-0.16557125 0,-0.12278321 0.0862,-0.19347656 0.08682,-0.0706934 0.238745,-0.0706934 0.06511,0 0.132705,0.0117822 0.06759,0.0117822 0.138286,0.0353467 z"
         style="fill:#ffffff;stroke-width:0.264583"
         id="path961" />
      <path
         d="m 17.788084,1.2201964 v 0.055811 h -0.524619 q 0.0074,0.1178222 0.07069,0.179834 0.06387,0.061392 0.177354,0.061392 0.06573,0 0.127124,-0.016123 0.06201,-0.016123 0.122783,-0.048369 v 0.1079004 q -0.06139,0.026045 -0.125884,0.039687 -0.06449,0.013643 -0.130844,0.013643 -0.166192,0 -0.26355,-0.096738 -0.09674,-0.096738 -0.09674,-0.2616895 0,-0.1705322 0.09178,-0.27037108 0.0924,-0.10045898 0.248667,-0.10045898 0.140146,0 0.221382,0.0905371 0.08186,0.089917 0.08186,0.24494626 z m -0.114101,-0.033486 q -0.0012,-0.093638 -0.05271,-0.1494482 -0.05085,-0.0558106 -0.135186,-0.0558106 -0.0955,0 -0.153169,0.0539502 -0.05705,0.05395 -0.06573,0.1519287 z"
         style="fill:#ffffff;stroke-width:0.264583"
         id="path963" />
      <path
         d="M 18.552688,1.1767882 V 1.5959874 H 18.438587 V 1.1805089 q 0,-0.098599 -0.03845,-0.1475879 -0.03845,-0.0489892 -0.115342,-0.0489892 -0.0924,0 -0.145728,0.0589111 -0.05333,0.058911 -0.05333,0.1606104 V 1.5959874 H 17.971018 V 0.9014562 h 0.114722 v 0.1079004 q 0.04093,-0.0626319 0.09612,-0.0936377 0.05581,-0.0310059 0.128365,-0.0310059 0.119682,0 0.181074,0.0744141 0.06139,0.0737939 0.06139,0.2176611 z"
         style="fill:#ffffff;stroke-width:0.264583"
         id="path965" />
      <path
         d="M 19.224275,0.92192007 V 1.0298205 q -0.04837,-0.024805 -0.100459,-0.0372071 -0.05209,-0.0124023 -0.1079,-0.0124023 -0.08496,0 -0.127744,0.0260449 -0.04217,0.026045 -0.04217,0.078135 0,0.039688 0.03039,0.062632 0.03038,0.022324 0.122163,0.042788 l 0.03907,0.00868 q 0.121543,0.026045 0.172393,0.073794 0.05147,0.047129 0.05147,0.1320849 0,0.096738 -0.07689,0.153169 -0.07628,0.056431 -0.21022,0.056431 -0.05581,0 -0.116582,-0.011162 -0.06015,-0.010542 -0.127124,-0.032246 V 1.4527404 q 0.06325,0.032866 0.124644,0.049609 0.06139,0.016123 0.121543,0.016123 0.08061,0 0.124023,-0.027285 0.04341,-0.027905 0.04341,-0.078135 0,-0.046509 -0.03163,-0.071314 -0.03101,-0.024805 -0.137046,-0.047749 l -0.03969,-0.0093 q -0.10604,-0.022324 -0.153169,-0.068213 -0.04713,-0.046509 -0.04713,-0.127124 0,-0.0979785 0.06945,-0.15130859 0.06945,-0.0533301 0.197197,-0.0533301 0.06325,0 0.119063,0.009302 0.05581,0.009302 0.102939,0.0279053 z"
         style="fill:#ffffff;stroke-width:0.264583"
         id="path967" />
      <path
         d="m 19.712927,0.98145132 q -0.09178,0 -0.145107,0.0719336 -0.05333,0.071314 -0.05333,0.195957 0,0.1246436 0.05271,0.1965772 0.05333,0.071314 0.145727,0.071314 0.09116,0 0.144488,-0.071934 0.05333,-0.071934 0.05333,-0.1959571 0,-0.1234033 -0.05333,-0.1953369 -0.05333,-0.0725537 -0.144488,-0.0725538 z m 0,-0.0967383 q 0.148828,0 0.233784,0.0967383 0.08496,0.0967383 0.08496,0.26789058 0,0.1705323 -0.08496,0.2678907 -0.08496,0.096738 -0.233784,0.096738 -0.149448,0 -0.234404,-0.096738 -0.08434,-0.097358 -0.08434,-0.2678907 0,-0.1711523 0.08434,-0.26789058 0.08496,-0.0967383 0.234404,-0.0967383 z"
         style="fill:#ffffff;stroke-width:0.264583"
         id="path969" />
      <path
         d="m 20.62264,1.0081164 q -0.01922,-0.0111621 -0.04217,-0.0161231 -0.02232,-0.005581 -0.04961,-0.005581 -0.09674,0 -0.148828,0.063252 -0.05147,0.062632 -0.05147,0.1804541 v 0.365869 H 20.215843 V 0.9014562 h 0.114722 v 0.1079004 q 0.03597,-0.063252 0.09364,-0.0936377 0.05767,-0.0310059 0.140147,-0.0310059 0.01178,0 0.02604,0.00186 0.01426,0.00124 0.03163,0.004341 z"
         style="fill:#ffffff;stroke-width:0.264583"
         id="path971" />
    </g>
  </g>
  <g
     id="layer2"
     inkscape:label="copper1"
     style="display:inline"
     inkscape:groupmode="layer">
    <path
       id="rect863"
       style="opacity:1;fill:#9a916c;fill-opacity:1;stroke:none;stroke-width:0.264583"
       d="m 1.6068118,13.615588 h 2.3120246 v 2.196394 H 1.6068118 Z" />
    <path
       id="path865"
       style="opacity:1;fill:#9a916c;fill-opacity:1;stroke:none;stroke-width:0.264583"
       d="M 6.7990371,14.713785 A 1.0965649,1.0965649 0 0 1 5.7024722,15.81035 1.0965649,1.0965649 0 0 1 4.6059073,14.713785 1.0965649,1.0965649 0 0 1 5.7024722,13.61722 1.0965649,1.0965649 0 0 1 6.7990371,14.713785 Z" />
    <path
       id="path865-3"
       style="opacity:1;fill:#9a916c;fill-opacity:1;stroke:none;stroke-width:0.264583"
       inkscape:transform-center-x="1.4494907"
       inkscape:transform-center-y="0.6675725"
       d="M 9.679238,14.713785 A 1.0965649,1.0965649 0 0 1 8.5826731,15.81035 1.0965649,1.0965649 0 0 1 7.4861082,14.713785 1.0965649,1.0965649 0 0 1 8.5826731,13.61722 1.0965649,1.0965649 0 0 1 9.679238,14.713785 Z" />
    <path
       id="path865-3-6"
       style="opacity:1;fill:#9a916c;fill-opacity:1;stroke:none;stroke-width:0.264583"
       inkscape:transform-center-x="1.4494907"
       inkscape:transform-center-y="0.6675725"
       d="m 12.559438,14.713785 a 1.0965649,1.0965649 0 0 1 -1.096565,1.096565 1.0965649,1.0965649 0 0 1 -1.096564,-1.096565 1.0965649,1.0965649 0 0 1 1.096564,-1.096565 1.0965649,1.0965649 0 0 1 1.096565,1.096565 z" />
    <path
       id="path865-3-7"
       style="opacity:1;fill:#9a916c;fill-opacity:1;stroke:none;stroke-width:0.264583"
       inkscape:transform-center-x="1.4494907"
       inkscape:transform-center-y="0.6675725"
       d="m 15.439639,14.713785 a 1.0965649,1.0965649 0 0 1 -1.096565,1.096565 1.0965649,1.0965649 0 0 1 -1.096565,-1.096565 1.0965649,1.0965649 0 0 1 1.096565,-1.096565 1.0965649,1.0965649 0 0 1 1.096565,1.096565 z" />
    <path
       id="path865-3-5"
       style="opacity:1;fill:#9a916c;fill-opacity:1;stroke:none;stroke-width:0.264583"
       inkscape:transform-center-x="1.4494907"
       inkscape:transform-center-y="0.6675725"
       d="m 18.319839,14.713785 a 1.0965649,1.0965649 0 0 1 -1.096565,1.096565 1.0965649,1.0965649 0 0 1 -1.096565,-1.096565 1.0965649,1.0965649 0 0 1 1.096565,-1.096565 1.0965649,1.0965649 0 0 1 1.096565,1.096565 z" />
    <path
       id="path865-3-3"
       style="opacity:1;fill:#9a916c;fill-opacity:1;stroke:none;stroke-width:0.264583"
       inkscape:transform-center-x="1.4494907"
       inkscape:transform-center-y="0.6675725"
       d="m 21.200039,14.713785 a 1.0965649,1.0965649 0 0 1 -1.096565,1.096565 1.0965649,1.0965649 0 0 1 -1.096565,-1.096565 1.0965649,1.0965649 0 0 1 1.096565,-1.096565 1.0965649,1.0965649 0 0 1 1.096565,1.096565 z" />
    <path
       id="path865-3-56"
       style="opacity:1;fill:#9a916c;fill-opacity:1;stroke:none;stroke-width:0.264583"
       inkscape:transform-center-x="1.4494907"
       inkscape:transform-center-y="0.6675725"
       d="m 24.080238,14.713785 a 1.0965649,1.0965649 0 0 1 -1.096565,1.096565 1.0965649,1.0965649 0 0 1 -1.096565,-1.096565 1.0965649,1.0965649 0 0 1 1.096565,-1.096565 1.0965649,1.0965649 0 0 1 1.096565,1.096565 z" />
    <ellipse
       style="opacity:1;fill:#ffffff;fill-opacity:1;stroke:none;stroke-width:0.264583"
       id="path1032"
       cx="2.7628241"
       cy="14.713785"
       rx="0.70881599"
       ry="0.66185194" />
    <ellipse
       style="display:inline;opacity:1;fill:#ffffff;fill-opacity:1;stroke:none;stroke-width:0.264583"
       id="path1032-2"
       cx="5.7024722"
       cy="14.713785"
       rx="0.70881599"
       ry="0.66185194" />
    <ellipse
       style="display:inline;opacity:1;fill:#ffffff;fill-opacity:1;stroke:none;stroke-width:0.264583"
       id="path1032-9"
       cx="8.5826731"
       cy="14.713785"
       rx="0.70881599"
       ry="0.66185194" />
    <ellipse
       style="display:inline;opacity:1;fill:#ffffff;fill-opacity:1;stroke:none;stroke-width:0.264583"
       id="path1032-1"
       cx="11.462873"
       cy="14.713785"
       rx="0.70881599"
       ry="0.66185194" />
    <ellipse
       style="display:inline;opacity:1;fill:#ffffff;fill-opacity:1;stroke:none;stroke-width:0.264583"
       id="path1032-27"
       cx="14.343074"
       cy="14.713785"
       rx="0.70881599"
       ry="0.66185194" />
    <ellipse
       style="display:inline;opacity:1;fill:#ffffff;fill-opacity:1;stroke:none;stroke-width:0.264583"
       id="path1032-0"
       cx="17.223274"
       cy="14.713785"
       rx="0.70881599"
       ry="0.66185194" />
    <ellipse
       style="display:inline;opacity:1;fill:#ffffff;fill-opacity:1;stroke:none;stroke-width:0.264583"
       id="path1032-93"
       cx="20.103474"
       cy="14.713785"
       rx="0.70881599"
       ry="0.66185194" />
    <ellipse
       style="display:inline;opacity:1;fill:#ffffff;fill-opacity:1;stroke:none;stroke-width:0.264583"
       id="path1032-6"
       cx="22.983673"
       cy="14.713785"
       rx="0.70881599"
       ry="0.66185194" />
  </g>
</svg>
